<mxfile host="app.diagrams.net" modified="2021-04-26T09:53:48.394Z" agent="5.0 (Windows NT 10.0; Win64; x64) AppleWebKit/537.36 (KHTML, like Gecko) Chrome/90.0.4430.85 Safari/537.36" etag="MFWr9V2y9HGfCjOT2AwJ" version="14.6.6" type="github">
  <diagram name="Page-1" id="e7e014a7-5840-1c2e-5031-d8a46d1fe8dd">
    <mxGraphModel dx="981" dy="526" grid="1" gridSize="10" guides="1" tooltips="1" connect="1" arrows="1" fold="1" page="1" pageScale="1" pageWidth="1169" pageHeight="826" background="#ffffff" math="0" shadow="0">
      <root>
        <mxCell id="0" />
        <mxCell id="1" parent="0" />
        <mxCell id="sILu31dvF7UAANiCr3LW-53" value="Liste" style="swimlane;fontStyle=1;align=center;verticalAlign=top;childLayout=stackLayout;horizontal=1;startSize=26;horizontalStack=0;resizeParent=1;resizeParentMax=0;resizeLast=0;collapsible=1;marginBottom=0;" vertex="1" parent="1">
          <mxGeometry x="600" y="270" width="160" height="190" as="geometry" />
        </mxCell>
        <mxCell id="sILu31dvF7UAANiCr3LW-54" value="- DEFAULTPATH: String" style="text;strokeColor=none;fillColor=none;align=left;verticalAlign=top;spacingLeft=4;spacingRight=4;overflow=hidden;rotatable=0;points=[[0,0.5],[1,0.5]];portConstraint=eastwest;" vertex="1" parent="sILu31dvF7UAANiCr3LW-53">
          <mxGeometry y="26" width="160" height="26" as="geometry" />
        </mxCell>
        <mxCell id="sILu31dvF7UAANiCr3LW-55" value="" style="line;strokeWidth=1;fillColor=none;align=left;verticalAlign=middle;spacingTop=-1;spacingLeft=3;spacingRight=3;rotatable=0;labelPosition=right;points=[];portConstraint=eastwest;" vertex="1" parent="sILu31dvF7UAANiCr3LW-53">
          <mxGeometry y="52" width="160" height="8" as="geometry" />
        </mxCell>
        <mxCell id="sILu31dvF7UAANiCr3LW-67" value="+ Liste()" style="text;strokeColor=none;fillColor=none;align=left;verticalAlign=top;spacingLeft=4;spacingRight=4;overflow=hidden;rotatable=0;points=[[0,0.5],[1,0.5]];portConstraint=eastwest;" vertex="1" parent="sILu31dvF7UAANiCr3LW-53">
          <mxGeometry y="60" width="160" height="20" as="geometry" />
        </mxCell>
        <mxCell id="sILu31dvF7UAANiCr3LW-56" value="+ last(Element): Element&#xa;+ add(String, String): void&#xa;+ delete(String): void&#xa;+ show(): void&#xa;+ call(): void&#xa;+ read(String): void&#xa;+ write(String): void" style="text;strokeColor=none;fillColor=none;align=left;verticalAlign=top;spacingLeft=4;spacingRight=4;overflow=hidden;rotatable=0;points=[[0,0.5],[1,0.5]];portConstraint=eastwest;" vertex="1" parent="sILu31dvF7UAANiCr3LW-53">
          <mxGeometry y="80" width="160" height="110" as="geometry" />
        </mxCell>
        <mxCell id="sILu31dvF7UAANiCr3LW-57" value="Hauptmenue" style="swimlane;fontStyle=1;align=center;verticalAlign=top;childLayout=stackLayout;horizontal=1;startSize=26;horizontalStack=0;resizeParent=1;resizeParentMax=0;resizeLast=0;collapsible=1;marginBottom=0;" vertex="1" parent="1">
          <mxGeometry x="600" y="155" width="160" height="60" as="geometry" />
        </mxCell>
        <mxCell id="sILu31dvF7UAANiCr3LW-59" value="" style="line;strokeWidth=1;fillColor=none;align=left;verticalAlign=middle;spacingTop=-1;spacingLeft=3;spacingRight=3;rotatable=0;labelPosition=right;points=[];portConstraint=eastwest;" vertex="1" parent="sILu31dvF7UAANiCr3LW-57">
          <mxGeometry y="26" width="160" height="8" as="geometry" />
        </mxCell>
        <mxCell id="sILu31dvF7UAANiCr3LW-60" value="+ Hauptmenue()" style="text;strokeColor=none;fillColor=none;align=left;verticalAlign=top;spacingLeft=4;spacingRight=4;overflow=hidden;rotatable=0;points=[[0,0.5],[1,0.5]];portConstraint=eastwest;" vertex="1" parent="sILu31dvF7UAANiCr3LW-57">
          <mxGeometry y="34" width="160" height="26" as="geometry" />
        </mxCell>
        <mxCell id="sILu31dvF7UAANiCr3LW-61" value="Main" style="swimlane;fontStyle=1;align=center;verticalAlign=top;childLayout=stackLayout;horizontal=1;startSize=26;horizontalStack=0;resizeParent=1;resizeParentMax=0;resizeLast=0;collapsible=1;marginBottom=0;" vertex="1" parent="1">
          <mxGeometry x="830" y="142" width="160" height="86" as="geometry" />
        </mxCell>
        <mxCell id="sILu31dvF7UAANiCr3LW-63" value="" style="line;strokeWidth=1;fillColor=none;align=left;verticalAlign=middle;spacingTop=-1;spacingLeft=3;spacingRight=3;rotatable=0;labelPosition=right;points=[];portConstraint=eastwest;" vertex="1" parent="sILu31dvF7UAANiCr3LW-61">
          <mxGeometry y="26" width="160" height="8" as="geometry" />
        </mxCell>
        <mxCell id="sILu31dvF7UAANiCr3LW-64" value="+ Main ()&#xa;" style="text;strokeColor=none;fillColor=none;align=left;verticalAlign=top;spacingLeft=4;spacingRight=4;overflow=hidden;rotatable=0;points=[[0,0.5],[1,0.5]];portConstraint=eastwest;fontStyle=0" vertex="1" parent="sILu31dvF7UAANiCr3LW-61">
          <mxGeometry y="34" width="160" height="26" as="geometry" />
        </mxCell>
        <mxCell id="sILu31dvF7UAANiCr3LW-66" value="+ main(String[]): void" style="text;strokeColor=none;fillColor=none;align=left;verticalAlign=top;spacingLeft=4;spacingRight=4;overflow=hidden;rotatable=0;points=[[0,0.5],[1,0.5]];portConstraint=eastwest;fontStyle=4" vertex="1" parent="sILu31dvF7UAANiCr3LW-61">
          <mxGeometry y="60" width="160" height="26" as="geometry" />
        </mxCell>
        <mxCell id="sILu31dvF7UAANiCr3LW-68" value="Element" style="swimlane;fontStyle=1;align=center;verticalAlign=top;childLayout=stackLayout;horizontal=1;startSize=26;horizontalStack=0;resizeParent=1;resizeParentMax=0;resizeLast=0;collapsible=1;marginBottom=0;" vertex="1" parent="1">
          <mxGeometry x="600" y="510" width="160" height="210" as="geometry" />
        </mxCell>
        <mxCell id="sILu31dvF7UAANiCr3LW-69" value="- ger: string&#xa;- eng: string" style="text;strokeColor=none;fillColor=none;align=left;verticalAlign=top;spacingLeft=4;spacingRight=4;overflow=hidden;rotatable=0;points=[[0,0.5],[1,0.5]];portConstraint=eastwest;" vertex="1" parent="sILu31dvF7UAANiCr3LW-68">
          <mxGeometry y="26" width="160" height="34" as="geometry" />
        </mxCell>
        <mxCell id="sILu31dvF7UAANiCr3LW-70" value="" style="line;strokeWidth=1;fillColor=none;align=left;verticalAlign=middle;spacingTop=-1;spacingLeft=3;spacingRight=3;rotatable=0;labelPosition=right;points=[];portConstraint=eastwest;" vertex="1" parent="sILu31dvF7UAANiCr3LW-68">
          <mxGeometry y="60" width="160" height="8" as="geometry" />
        </mxCell>
        <mxCell id="sILu31dvF7UAANiCr3LW-71" value="+ Element()&#xa;+ getGer(): String&#xa;+ setGer(String): void&#xa;+ getEng(): String&#xa;+ setEng(String): void&#xa;+ getPrev(): Element&#xa;+ setPrev(Element): void&#xa;+ getNext(): Element&#xa;+ setNext(Element): void" style="text;strokeColor=none;fillColor=none;align=left;verticalAlign=top;spacingLeft=4;spacingRight=4;overflow=hidden;rotatable=0;points=[[0,0.5],[1,0.5]];portConstraint=eastwest;" vertex="1" parent="sILu31dvF7UAANiCr3LW-68">
          <mxGeometry y="68" width="160" height="142" as="geometry" />
        </mxCell>
        <mxCell id="sILu31dvF7UAANiCr3LW-73" value="" style="endArrow=classic;html=1;" edge="1" parent="1" source="sILu31dvF7UAANiCr3LW-61" target="sILu31dvF7UAANiCr3LW-57">
          <mxGeometry width="50" height="50" relative="1" as="geometry">
            <mxPoint x="720" y="300" as="sourcePoint" />
            <mxPoint x="770" y="250" as="targetPoint" />
          </mxGeometry>
        </mxCell>
        <mxCell id="sILu31dvF7UAANiCr3LW-74" value="" style="endArrow=classic;html=1;" edge="1" parent="1" source="sILu31dvF7UAANiCr3LW-60" target="sILu31dvF7UAANiCr3LW-53">
          <mxGeometry width="50" height="50" relative="1" as="geometry">
            <mxPoint x="720" y="300" as="sourcePoint" />
            <mxPoint x="770" y="250" as="targetPoint" />
          </mxGeometry>
        </mxCell>
        <mxCell id="sILu31dvF7UAANiCr3LW-75" value="" style="endArrow=classic;html=1;entryX=0.5;entryY=0.048;entryDx=0;entryDy=0;entryPerimeter=0;" edge="1" parent="1" source="sILu31dvF7UAANiCr3LW-56" target="sILu31dvF7UAANiCr3LW-68">
          <mxGeometry width="50" height="50" relative="1" as="geometry">
            <mxPoint x="720" y="300" as="sourcePoint" />
            <mxPoint x="770" y="250" as="targetPoint" />
          </mxGeometry>
        </mxCell>
      </root>
    </mxGraphModel>
  </diagram>
</mxfile>
